# xmcd
#
# Track frame offsets: 
#        150
#        17269
#        32473
#        49521
#        65234
#        81277
#        97635
#        112186
#        129191
#        144440
#        161026
#        171278
#        193675
#        212458
#
# Disc length: 3054 seconds
#
# Revision: 0
# Processed by: cddbd v1.5.2PL0 Copyright (c) Steve Scherf et al.
# Submitted via: ExactAudioCopy v0.90b4
#
DISCID=b10bec0e
DTITLE=Jennifer Hudson - I Remember Me
DYEAR=2011
DGENRE=R&B
TTITLE0=No One Gonna Love You
TTITLE1=I Got This
TTITLE2=Where You At
TTITLE3=Angel
TTITLE4=I Remember Me (Radio Mix)
TTITLE5=Gone
TTITLE6=Everybody Needs Love
TTITLE7=Why Is It So Hard
TTITLE8=Don't Look Down
TTITLE9=Still Here
TTITLE10=Feeling Good
TTITLE11=Believe
TTITLE12=Spotlight
TTITLE13=Love Is Your Color (Duet With Leona Lewis)
EXTD=
EXTT0=
EXTT1=
EXTT2=
EXTT3=
EXTT4=
EXTT5=
EXTT6=
EXTT7=
EXTT8=
EXTT9=
EXTT10=
EXTT11=
EXTT12=
EXTT13=
PLAYORDER=
